<svg viewBox="0 0 135 135" xmlns="http://www.w3.org/2000/svg"><path d="M67.5 0C30.2755 0 0 30.2755 0 67.5 0 104.724 30.2755 135 67.5 135c3.6788 0 7.2759-.3 10.7913-.872 22.9317-3.706 42.0337-18.994 51.0817-39.6634 3.624-8.2706 5.641-17.386 5.641-26.9646C135 30.2755 104.724 0 67.5 0Zm58.753 91.3444c-.205-.2044-.423-.4224-.614-.6132l-7.439-7.4394c-6.581-6.5811-23.7082-8.366-32.769-2.0711 8.7474-6.0769 16.446-9.8511 20.642-9.2925l-8.7062-9.4696c-3.0112-3.0112-6.0224-6.0769-9.1018-9.1017-6.0769-5.9679-13.9251-13.5709-23.2312-12.3446-4.9869.8175-9.4287 3.638-12.3037 7.821-.4087.545-.7903 1.1036-1.1445 1.6759l-13.5845 2.7796c-.9265.2316-1.6623.9537-1.9212 1.8803-.2588.9265 0 1.9211.6813 2.6024l10.8458 8.2978v-.0136c1.8803 1.4579 3.0248 2.3436 5.7635 5.0141 8.9655 9.2789 6.6083 15.3694 6.6083 26.0381.2044 7.9161 2.3708 15.6551 6.2949 22.5361 2.1801 4.006 4.9051 7.658 8.0798 10.901-2.2618.245-4.5508.381-6.8671.381-34.9491-.014-63.39879-28.45-63.39879-63.426C4.08761 32.5237 32.5373 4.08761 67.5 4.08761c34.963 0 63.412 28.44969 63.412 63.41239 0 8.4341-1.662 16.4867-4.659 23.8444ZM68.9988 59.1068c0 2.1528-1.7441 3.8968-3.8969 3.8968s-3.8968-1.744-3.8968-3.8968 1.744-3.8969 3.8968-3.8969c2.1665 0 3.8969 1.7441 3.8969 3.8969Z"/></svg>